<?xml version="1.0" encoding="iso-8859-1"?>
<!-- Generator: Adobe Illustrator 19.0.0, SVG Export Plug-In . SVG Version: 6.00 Build 0)  -->
<svg version="1.1" id="Capa_1" xmlns="http://www.w3.org/2000/svg" xmlns:xlink="http://www.w3.org/1999/xlink" x="0px" y="0px"
	 viewBox="0 0 512 512" style="enable-background:new 0 0 512 512;" xml:space="preserve">
<g>
	<g>
		<path d="M410.623,147.768v329.995h-35.497V197.767H273.749v279.996h-35.498V247.767H136.874v229.997h-35.498V297.766H0v209.997
			h512V147.768H410.623z M71.378,477.763H30V327.766h41.378V477.763z M208.251,477.763h-41.377V277.766h41.377V477.763z
			 M345.126,477.763h-41.377V227.767h41.377V477.763z M482,477.763h-41.377V177.768H482V477.763z"/>
	</g>
</g>
<g>
	<g>
		<polygon points="441.918,4.237 426.128,29.745 458.256,49.632 0.894,215.466 11.121,243.67 467.676,78.128 453.902,113.215 
			481.826,124.176 511.904,47.559 		"/>
	</g>
</g>
<g>
</g>
<g>
</g>
<g>
</g>
<g>
</g>
<g>
</g>
<g>
</g>
<g>
</g>
<g>
</g>
<g>
</g>
<g>
</g>
<g>
</g>
<g>
</g>
<g>
</g>
<g>
</g>
<g>
</g>
</svg>
