<?xml version="1.0"?>
<svg xmlns="http://www.w3.org/2000/svg" xmlns:xlink="http://www.w3.org/1999/xlink" xmlns:svgjs="http://svgjs.com/svgjs" version="1.1" width="512" height="512" x="0" y="0" viewBox="0 0 512 512" style="enable-background:new 0 0 512 512" xml:space="preserve" class=""><g>
<circle xmlns="http://www.w3.org/2000/svg" style="" cx="256" cy="256" r="256" fill="#ff8f00" data-original="#8d24a9" class=""/>
<path xmlns="http://www.w3.org/2000/svg" style="" d="M512,256c0-8.639-0.435-17.176-1.27-25.596l-82.857-82.856L86.675,368.127l142.474,142.474  C237.974,511.521,246.931,512,256,512C397.385,512,512,397.385,512,256z" fill="#d17600" data-original="#6a1b99" class=""/>
<path xmlns="http://www.w3.org/2000/svg" style="" d="M404.5,377.942h-297c-14.912,0-27-12.088-27-27V161.058c0-14.912,12.088-27,27-27h297  c14.912,0,27,12.088,27,27v189.884C431.5,365.854,419.412,377.942,404.5,377.942z" fill="#feea3b" data-original="#feea3b" class=""/>
<path xmlns="http://www.w3.org/2000/svg" style="" d="M404.5,134.058H256.548v243.884H404.5c14.912,0,27-12.088,27-27V161.058  C431.5,146.146,419.412,134.058,404.5,134.058z" fill="#f9c41e" data-original="#f9c41e" class=""/>
<rect xmlns="http://www.w3.org/2000/svg" x="80.5" y="178.5" style="" width="351" height="61" fill="#455a64" data-original="#455a64" class=""/>
<rect xmlns="http://www.w3.org/2000/svg" x="256.55" y="178.5" style="" width="174.95" height="61" fill="#37474f" data-original="#37474f" class=""/>
<g xmlns="http://www.w3.org/2000/svg">
	<rect x="116.5" y="268" style="" width="114" height="9.5" fill="#ff7c11" data-original="#ff7c11" class=""/>
	<rect x="116.5" y="323" style="" width="92.5" height="9.5" fill="#ff7c11" data-original="#ff7c11" class=""/>
	<rect x="116.5" y="295.5" style="" width="76" height="9.5" fill="#ff7c11" data-original="#ff7c11" class=""/>
</g>
<g xmlns="http://www.w3.org/2000/svg">
</g>
<g xmlns="http://www.w3.org/2000/svg">
</g>
<g xmlns="http://www.w3.org/2000/svg">
</g>
<g xmlns="http://www.w3.org/2000/svg">
</g>
<g xmlns="http://www.w3.org/2000/svg">
</g>
<g xmlns="http://www.w3.org/2000/svg">
</g>
<g xmlns="http://www.w3.org/2000/svg">
</g>
<g xmlns="http://www.w3.org/2000/svg">
</g>
<g xmlns="http://www.w3.org/2000/svg">
</g>
<g xmlns="http://www.w3.org/2000/svg">
</g>
<g xmlns="http://www.w3.org/2000/svg">
</g>
<g xmlns="http://www.w3.org/2000/svg">
</g>
<g xmlns="http://www.w3.org/2000/svg">
</g>
<g xmlns="http://www.w3.org/2000/svg">
</g>
<g xmlns="http://www.w3.org/2000/svg">
</g>
</g></svg>
