<svg id="Capa_1" enable-background="new 0 0 505.935 505.935" height="512" viewBox="0 0 505.935 505.935" width="512" xmlns="http://www.w3.org/2000/svg"><g><path d="m360.574 153.145c13.337-2.438 29.261-4.145 52.393-4.145v-30c-35.14 0-55.752 3.746-73.623 7.988z"/><path d="m166.59 126.988c-17.871-4.242-38.482-7.988-73.623-7.988v30c23.132 0 39.057 1.707 52.394 4.145z"/><path d="m252.967 139c38.153 0 56.713-4.64 76.362-9.552 3.293-.823 6.605-1.651 10.016-2.46l37.842-93.222-10.979-6.614c-1.841-1.11-45.847-27.152-113.241-27.152s-111.4 26.042-113.24 27.151l-10.979 6.614 37.843 93.222c3.411.81 6.723 1.637 10.015 2.46 19.648 4.913 38.208 9.553 76.361 9.553z"/><path d="m425.375 260.474c-17.602-42.21-40.115-79.35-64.801-107.329-8.66 1.583-16.232 3.473-23.968 5.408-20.546 5.135-41.792 10.447-83.639 10.447s-63.092-5.312-83.638-10.448c-7.736-1.934-15.308-3.825-23.968-5.408-24.85 28.167-47.507 65.638-65.145 108.158-20.454 49.306-32.184 100.696-32.184 140.994 0 34.144 8.4 58.961 25.682 75.87 30.308 29.656 81.258 28.548 140.251 27.264 12.626-.274 25.682-.559 39.003-.559s26.377.284 39.003.559c11.752.256 23.184.505 34.198.504 44.274 0 81.783-4.02 106.053-27.768 17.281-16.909 25.682-41.727 25.682-75.87-.001-40.558-11.857-92.25-32.529-141.822zm-188.487 31.52c8.084 6.341 22.555 11.926 35.644 16.552 48.986 17.064 41.392 84.36-5.457 97.808v22.646h-30v-21.191c-15.601-1.219-28.635-10.527-42.973-20.052l16.423-25.105 12.552 8.211c10.662 6.975 14.989 7.65 28.898 7.568 21.971.839 35.963-32.406 10.559-41.6-22.098-7.812-34.892-13.963-44.159-21.232-26.926-21.429-12.731-66.562 18.7-76.216v-21.383h30v19.206c19.198 3.475 26.897 9.467 40.527 16.521l-14.233 26.408s-13.204-7.117-13.204-7.116c-10.468-6.266-40.891-14.648-45.826 9.68-.229 1.532-.719 6.732 2.549 9.295z"/></g></svg>