<?xml version="1.0" encoding="iso-8859-1"?>
<!-- Generator: Adobe Illustrator 19.0.0, SVG Export Plug-In . SVG Version: 6.00 Build 0)  -->
<svg version="1.1" id="Capa_1" xmlns="http://www.w3.org/2000/svg" xmlns:xlink="http://www.w3.org/1999/xlink" x="0px" y="0px"
	 viewBox="0 0 512 512" style="enable-background:new 0 0 512 512;" xml:space="preserve">
<g>
	<g>
		<path d="M256,0c-56.501,0-102.305,45.803-102.305,102.304c0,56.501,45.804,102.305,102.305,102.305
			c56.501,0,102.304-45.803,102.304-102.305C358.304,45.803,312.501,0,256,0z M256,87.305c20.848,0,37.809,16.961,37.809,37.809
			c0,15.521-9.403,28.881-22.809,34.699v14.744h-30v-14.744c-13.406-5.818-22.809-19.178-22.809-34.699h30
			c0,4.307,3.503,7.81,7.809,7.81c4.306,0,7.809-3.503,7.809-7.81c0-4.306-3.503-7.809-7.809-7.809
			c-20.848,0-37.809-16.961-37.809-37.81c0-15.521,9.403-28.881,22.809-34.699V30.053h30v14.743
			c13.406,5.818,22.809,19.178,22.809,34.699h-30c0-4.307-3.503-7.81-7.809-7.81s-7.809,3.503-7.809,7.81S251.693,87.305,256,87.305
			z"/>
	</g>
</g>
<g>
	<g>
		<path d="M175.776,261.747l-63.887-63.888c-8.613-8.613-22.627-8.613-31.24,0c-8.612,8.612-8.612,22.627,0,31.239l53.172,53.172
			l-21.213,21.213l-53.172-53.172c-10.155-10.154-15.232-23.494-15.232-36.833H44.18v-78.984c0-12.181-9.909-22.09-22.089-22.09
			c-12.181,0-22.09,9.909-22.09,22.09v90.136c0,19.336,8.088,38.012,22.189,51.239l89.079,83.561v28.578h85.083v-76.585
			C196.352,292.656,189.044,275.015,175.776,261.747z"/>
	</g>
</g>
<g>
	<g>
		<path d="M53.96,418.008V512h164.446v-93.992H53.96z M102.677,475.61c-5.858,5.858-15.355,5.858-21.213,0
			c-5.858-5.858-5.858-15.355,0-21.213c5.858-5.858,15.355-5.858,21.213,0C108.534,460.255,108.534,469.752,102.677,475.61z"/>
	</g>
</g>
<g>
	<g>
		<path d="M489.91,112.404c-12.18,0-22.089,9.909-22.089,22.09v78.984h-0.024c0,13.339-5.077,26.679-15.232,36.833l-53.172,53.172
			L378.18,282.27l53.172-53.172c8.612-8.612,8.612-22.627,0-31.239c-8.613-8.613-22.627-8.613-31.24,0l-63.887,63.888
			c-13.269,13.268-20.576,30.909-20.576,49.676v76.585h85.083V359.43l89.079-83.561C503.911,262.642,512,243.966,512,224.63v-90.136
			C512,122.313,502.091,112.404,489.91,112.404z"/>
	</g>
</g>
<g>
	<g>
		<path d="M293.594,418.008V512H458.04v-93.992H293.594z M430.536,475.61c-5.858,5.858-15.355,5.858-21.213,0
			c-5.858-5.858-5.858-15.355,0-21.213c5.858-5.858,15.355-5.858,21.213,0C436.394,460.255,436.394,469.752,430.536,475.61z"/>
	</g>
</g>
<g>
</g>
<g>
</g>
<g>
</g>
<g>
</g>
<g>
</g>
<g>
</g>
<g>
</g>
<g>
</g>
<g>
</g>
<g>
</g>
<g>
</g>
<g>
</g>
<g>
</g>
<g>
</g>
<g>
</g>
</svg>
